<svg width="35" height="35" viewBox="0 0 35 35" fill="none" xmlns="http://www.w3.org/2000/svg">
<path d="M15.75 3.5C11.884 3.5 8.75 6.63401 8.75 10.5C8.75 14.366 11.884 17.5 15.75 17.5C19.6159 17.5 22.75 14.366 22.75 10.5C22.75 6.63401 19.6159 3.5 15.75 3.5ZM7.01528 19.25C5.08051 19.25 3.5 20.8021 3.5 22.75C3.5 25.7096 4.95742 27.941 7.23623 29.3941C9.4797 30.8245 12.5042 31.5 15.75 31.5C16.469 31.5 17.1771 31.4669 17.8684 31.3997C16.543 29.7505 15.75 27.6554 15.75 25.375C15.75 23.0482 16.5757 20.9141 17.9501 19.25H7.01528ZM18.6114 24.3598C20.5153 23.8735 21.6458 21.9154 21.115 20.0235L20.8416 19.0491C21.2863 18.7073 21.7682 18.4146 22.2799 18.1785L22.8704 18.805C24.251 20.2699 26.5799 20.2711 27.962 18.8076L28.5302 18.206C29.0514 18.4518 29.541 18.7569 29.9911 19.1126L29.7703 19.8517C29.194 21.7803 30.3595 23.7965 32.3185 24.2597L32.9292 24.4041C32.967 24.7223 32.9865 25.0462 32.9865 25.3748C32.9865 25.6478 32.973 25.9175 32.9469 26.1833L32.1409 26.3891C30.237 26.8756 29.1065 28.8337 29.6373 30.7256L29.9105 31.6999C29.4658 32.0416 28.984 32.3346 28.4722 32.5707L27.8819 31.9442C26.5013 30.4792 24.1724 30.478 22.7902 31.9415L22.2215 32.5437C21.7003 32.2978 21.2109 31.993 20.7608 31.6374L20.982 30.8975C21.5583 28.9688 20.3927 26.9525 18.4338 26.4894L17.822 26.3447C17.7844 26.0269 17.7649 25.7031 17.7649 25.3748C17.7649 25.1017 17.7782 24.8318 17.8045 24.566L18.6114 24.3598ZM27.1257 25.3748C27.1257 24.4083 26.3422 23.6248 25.3757 23.6248C24.4092 23.6248 23.6257 24.4083 23.6257 25.3748C23.6257 26.3412 24.4092 27.1248 25.3757 27.1248C26.3422 27.1248 27.1257 26.3412 27.1257 25.3748Z" fill="#FDFDFD"/>
</svg>
