<svg width="21" height="22" viewBox="0 0 21 22" fill="none" xmlns="http://www.w3.org/2000/svg">
<path d="M20.7206 9.32283C20.7074 9.05504 20.6021 8.77708 20.4125 8.5875L18.1625 6.3375C17.7125 5.8875 17.0375 5.8875 16.5875 6.3375C16.1375 6.7875 16.1375 7.4625 16.5875 7.9125C16.712 8.03705 16.6238 8.25 16.4477 8.25H14C13.325 8.25 12.875 8.7 12.875 9.375C12.875 10.05 13.325 10.5 14 10.5H16.4477C16.6238 10.5 16.712 10.713 16.5875 10.8375C16.1375 11.2875 16.1375 11.9625 16.5875 12.4125C16.8125 12.6375 17.15 12.75 17.375 12.75C17.6 12.75 17.9375 12.6375 18.1625 12.4125L20.4125 10.1625C20.422 10.153 20.4316 10.1434 20.441 10.1339C20.6159 9.95779 20.6987 9.70747 20.7185 9.46008C20.7221 9.41406 20.7228 9.36863 20.7206 9.32283Z" fill="#FDFDFD"/>
<path d="M15.125 12.75C14.45 12.75 14 13.2 14 13.875V15C14 15.675 13.55 16.125 12.875 16.125C12.2537 16.125 11.75 15.6213 11.75 15V6.45C11.75 4.9875 10.85 3.75 9.6125 3.3C9.24912 3.16373 9.34681 2.625 9.7349 2.625H12.875C13.55 2.625 14 3.075 14 3.75V4.875C14 5.55 14.45 6 15.125 6C15.8 6 16.25 5.55 16.25 4.875V3.75C16.25 1.8375 14.7875 0.375 12.875 0.375H1.625C1.5125 0.375 1.4 0.375 1.2875 0.4875C1.2875 0.4875 1.2875 0.4875 1.2875 0.4875C1.25507 0.4875 1.22265 0.496846 1.19291 0.510151C1.19291 0.510151 0.95 0.7125 0.95 0.7125C0.8375 0.7125 0.725 0.825 0.725 0.9375V1.05C0.6125 1.05 0.5 1.1625 0.5 1.275C0.5 1.275 0.5 1.275 0.5 1.3875V1.5V17.25C0.5 17.7 0.8375 18.15 1.175 18.2625L8.6 21.075C8.825 21.1875 9.1625 21.1875 9.3875 21.1875C9.8375 21.1875 10.2875 21.075 10.625 20.7375C11.1875 20.2875 11.6375 19.6125 11.6375 18.9375C11.6375 18.6268 11.8893 18.375 12.2 18.375H12.7625C14.675 18.375 16.1375 16.9125 16.1375 15V14.6672C16.1375 14.1403 16.28 13.5423 15.951 13.1309C15.7693 12.9037 15.4779 12.75 15.125 12.75ZM4.96314 17.274C3.63378 16.7866 2.75 15.5212 2.75 14.1053V9.4479C2.75 6.36725 5.83024 4.23736 8.7125 5.325C9.1625 5.55 9.5 6 9.5 6.45V17.25C9.5 18.0692 8.68482 18.6386 7.91565 18.3566L4.96314 17.274Z" fill="#FDFDFD"/>
</svg>
