<svg width="28" height="28" viewBox="0 0 28 28" fill="none" xmlns="http://www.w3.org/2000/svg">
<path d="M23.625 7H15.8375L13.825 3.9375C13.7375 3.675 13.3875 3.5 13.125 3.5H4.375C2.8875 3.5 1.75 4.6375 1.75 6.125V21.875C1.75 23.3625 2.8875 24.5 4.375 24.5H23.625C25.1125 24.5 26.25 23.3625 26.25 21.875V9.625C26.25 8.1375 25.1125 7 23.625 7ZM9.625 16.625H6.125C5.6 16.625 5.25 16.275 5.25 15.75C5.25 15.225 5.6 14.875 6.125 14.875H9.625C10.15 14.875 10.5 15.225 10.5 15.75C10.5 16.275 10.15 16.625 9.625 16.625ZM12.25 13.125H6.125C5.6 13.125 5.25 12.775 5.25 12.25C5.25 11.725 5.6 11.375 6.125 11.375H12.25C12.775 11.375 13.125 11.725 13.125 12.25C13.125 12.775 12.775 13.125 12.25 13.125ZM24.5 20.65L16.975 8.75H23.625C24.15 8.75 24.5 9.1 24.5 9.625V20.65Z" fill="#FDFDFD"/>
</svg>
