<svg width="28" height="28" viewBox="0 0 28 28" fill="none" xmlns="http://www.w3.org/2000/svg">
<path d="M23.2708 24.5048L25.1334 21.3867H21.4088L23.2708 24.5048Z" fill="#FDFDFD"/>
<path d="M25.4531 7.13818H21.0887V20.5465H25.4531V7.13818Z" fill="#FDFDFD"/>
<path d="M25.4531 3.09619H21.0887V6.29827H25.4531V3.09619Z" fill="#FDFDFD"/>
<path d="M18.6536 24.9036V21.356H4.23357C3.79383 21.3564 3.37162 21.5284 3.05681 21.8355C2.74199 22.1425 2.55943 22.5602 2.54797 22.9998V23.26C2.55942 23.6994 2.74188 24.117 3.05652 24.4239C3.37117 24.7309 3.79316 24.903 4.23273 24.9036H18.6536Z" fill="#FDFDFD"/>
<path d="M2.54797 5.02917V21.165C3.00977 20.7474 3.61014 20.5161 4.23273 20.516H18.6527V3.09717H4.47997C3.96773 3.09769 3.47662 3.3014 3.11442 3.66361C2.75221 4.02582 2.54849 4.51693 2.54797 5.02917Z" fill="#FDFDFD"/>
</svg>
