<svg width="24" height="24" viewBox="0 0 24 24" fill="none" xmlns="http://www.w3.org/2000/svg">
<g clip-path="url(#clip0_260_327)">
<path d="M7.92857 13.5H5.78571C5.43214 13.5 5.14286 13.2469 5.14286 12.9375V11.0625C5.14286 10.7531 5.43214 10.5 5.78571 10.5H7.92857C8.28214 10.5 8.57143 10.7531 8.57143 11.0625V12.9375C8.57143 13.2469 8.28214 13.5 7.92857 13.5ZM13.7143 12.9375V11.0625C13.7143 10.7531 13.425 10.5 13.0714 10.5H10.9286C10.575 10.5 10.2857 10.7531 10.2857 11.0625V12.9375C10.2857 13.2469 10.575 13.5 10.9286 13.5H13.0714C13.425 13.5 13.7143 13.2469 13.7143 12.9375ZM18.8571 12.9375V11.0625C18.8571 10.7531 18.5679 10.5 18.2143 10.5H16.0714C15.7179 10.5 15.4286 10.7531 15.4286 11.0625V12.9375C15.4286 13.2469 15.7179 13.5 16.0714 13.5H18.2143C18.5679 13.5 18.8571 13.2469 18.8571 12.9375ZM13.7143 17.4375V15.5625C13.7143 15.2531 13.425 15 13.0714 15H10.9286C10.575 15 10.2857 15.2531 10.2857 15.5625V17.4375C10.2857 17.7469 10.575 18 10.9286 18H13.0714C13.425 18 13.7143 17.7469 13.7143 17.4375ZM8.57143 17.4375V15.5625C8.57143 15.2531 8.28214 15 7.92857 15H5.78571C5.43214 15 5.14286 15.2531 5.14286 15.5625V17.4375C5.14286 17.7469 5.43214 18 5.78571 18H7.92857C8.28214 18 8.57143 17.7469 8.57143 17.4375ZM18.8571 17.4375V15.5625C18.8571 15.2531 18.5679 15 18.2143 15H16.0714C15.7179 15 15.4286 15.2531 15.4286 15.5625V17.4375C15.4286 17.7469 15.7179 18 16.0714 18H18.2143C18.5679 18 18.8571 17.7469 18.8571 17.4375ZM24 5.25V21.75C24 22.9922 22.8482 24 21.4286 24H2.57143C1.15179 24 0 22.9922 0 21.75V5.25C0 4.00781 1.15179 3 2.57143 3H5.14286V0.5625C5.14286 0.253125 5.43214 0 5.78571 0H7.92857C8.28214 0 8.57143 0.253125 8.57143 0.5625V3H15.4286V0.5625C15.4286 0.253125 15.7179 0 16.0714 0H18.2143C18.5679 0 18.8571 0.253125 18.8571 0.5625V3H21.4286C22.8482 3 24 4.00781 24 5.25ZM21.4286 21.4688V7.5H2.57143V21.4688C2.57143 21.6234 2.71607 21.75 2.89286 21.75H21.1071C21.2839 21.75 21.4286 21.6234 21.4286 21.4688Z" fill="#00C8D2"/>
</g>
<defs>
<clipPath id="clip0_260_327">
<rect width="24" height="24" fill="white"/>
</clipPath>
</defs>
</svg>
