<?xml version="1.0" encoding="UTF-8"?>
<svg fill="none" viewBox="0 0 15 10" xmlns="http://www.w3.org/2000/svg">
<path d="m13.824 0.27451c-0.2425-0.20041-0.5543-0.29689-0.8675-0.26844-0.3133 0.028456-0.6026 0.17955-0.8049 0.42036l-5.0262 6.0306-5.0263-6.0305c-0.20177-0.24176-0.49132-0.39346-0.80494-0.42173-0.31362-0.028274-0.62563 0.069197-0.86739 0.27097-0.24176 0.20177-0.39346 0.49132-0.42173 0.80494-0.028274 0.31362 0.069197 0.62563 0.27097 0.86738l5.9378 7.1253c0.11139 0.13358 0.25078 0.24105 0.4083 0.31479 0.15752 0.07375 0.32932 0.11197 0.50325 0.11197s0.34573-0.03822 0.50325-0.11197c0.15752-0.07374 0.2969-0.18121 0.40829-0.31479l5.9378-7.1254c0.2017-0.24201 0.2991-0.55417 0.2709-0.86794-0.0283-0.31376-0.1799-0.60349-0.4216-0.80555z" fill="#004168"/>
</svg>
