<?xml version="1.0" encoding="UTF-8"?>
<svg fill="none" viewBox="0 0 17 17" xmlns="http://www.w3.org/2000/svg">
<path d="m8.5 11.688c-0.54885 0-1.0977-0.18-1.5659-0.5449l-6.9341-5.3918v7.5304c0 0.8799 0.71354 1.5938 1.5938 1.5938h13.812c0.8803 0 1.5938-0.7135 1.5938-1.5938v-7.5304l-6.9328 5.3955c-0.46818 0.3619-1.0194 0.5412-1.5672 0.5412zm-7.9591-6.8631 7.0457 5.4818c0.53756 0.4184 1.2906 0.4184 1.8282 0l7.0456-5.4818c0.3105-0.26562 0.5396-0.67402 0.5396-1.1057 0-0.88021-0.7139-1.5938-1.5938-1.5938h-13.812c-0.88022 0-1.5938 0.71354-1.5938 1.5938 0 0.43164 0.19955 0.84004 0.54088 1.1057z" fill="#004168"/>
</svg>
