<?xml version="1.0" encoding="UTF-8"?>
<svg fill="none" viewBox="0 0 20 20" xmlns="http://www.w3.org/2000/svg">
<path d="m6.7275 10.162-3.2175-3.2175c-1.2667 1.3808-1.7467 2.7642-1.755 2.7925l-0.08833 0.26338 0.0875 0.2633c0.01833 0.0558 1.93 5.57 8.2909 5.57 0.7741 0 1.4791-0.085 2.1266-0.2275l-2.2883-2.2883c-0.82393-0.0404-1.6034-0.3859-2.1867-0.9692-0.5833-0.5833-0.92876-1.3627-0.96915-2.1867zm3.3175-5.995c-1.5459 0-2.8125 0.33667-3.8684 0.83167l-3.0875-3.0875-1.1783 1.1783 15 15 1.1783-1.1783-2.7483-2.7483c2.1983-1.6275 2.9825-3.8642 2.9942-3.8992l0.0875-0.2633-0.0875-0.26338c-0.0184-0.05583-1.9292-5.57-8.29-5.57zm1.5883 6.2884c0.1558-0.56421 0.0233-1.1992-0.41-1.6334-0.4333-0.43416-1.0692-0.56583-1.6333-0.41l-1.2567-1.2567c0.51497-0.31668 1.1071-0.48562 1.7117-0.48834 1.8383 0 3.3333 1.495 3.3333 3.3334-0.0025 0.6044-0.1718 1.1964-0.4892 1.7108l-1.2558-1.2558z" fill="#004168"/>
</svg>
