<svg width="18" height="18" viewBox="0 0 18 18" fill="none" xmlns="http://www.w3.org/2000/svg">
<path d="M13.0956 8.13499L6.34536 2.50975C6.11588 2.31993 5.82054 2.22879 5.524 2.25627C5.22746 2.28376 4.9539 2.42763 4.76322 2.65639C4.57254 2.88515 4.48028 3.18014 4.50665 3.47678C4.53302 3.77342 4.67586 4.04752 4.90389 4.23906L10.617 8.99969L4.90389 13.7603C4.67498 13.9516 4.53135 14.2259 4.50455 14.523C4.47776 14.8201 4.56999 15.1157 4.76099 15.3448C4.95199 15.574 5.22614 15.7179 5.52321 15.7451C5.82028 15.7722 6.11598 15.6804 6.34536 15.4896L13.0956 9.86431C13.2222 9.75856 13.324 9.62632 13.3939 9.47691C13.4638 9.3275 13.5 9.16458 13.5 8.99965C13.5 8.83472 13.4638 8.67179 13.3939 8.52239C13.324 8.37298 13.2222 8.24074 13.0956 8.13499Z" fill="#FDFDFD"/>
</svg>
