<?xml version="1.0" encoding="UTF-8"?>
<svg fill="none" viewBox="0 0 17 17" xmlns="http://www.w3.org/2000/svg">
<g clip-path="url(#a)">
<path d="m14.167 7.0832h-8.5v-1.9833c0-1.4875 1.0625-2.8333 2.55-2.975 1.7-0.14167 3.1166 1.2042 3.1166 2.8333 0 0.425 0.2834 0.70833 0.7084 0.70833h0.7083c0.425 0 0.7083-0.28333 0.7083-0.70833 0-2.6917-2.125-4.8875-4.8166-4.9583-2.7625-0.070833-5.1 2.1958-5.1 4.9583v2.125h-0.70834c-0.77916 0-1.4167 0.6375-1.4167 1.4167v4.9583c0 1.9834 1.5583 3.5417 3.5417 3.5417h7.0834c1.9833 0 3.5416-1.5583 3.5416-3.5417v-4.9583c0-0.77917-0.6375-1.4167-1.4166-1.4167zm-4.9584 5.4542v0.9208c0 0.3542-0.35416 0.7084-0.70833 0.7084s-0.70833-0.3542-0.70833-0.7084v-0.9208c-0.425-0.2125-0.70834-0.7083-0.70834-1.2042 0-0.7791 0.6375-1.4166 1.4167-1.4166s1.4167 0.63753 1.4167 1.4166c0 0.4959-0.28334 0.9917-0.70834 1.2042z" fill="#004168"/>
</g>
<defs>
<clipPath id="a">
<rect width="17" height="17" fill="#fff"/>
</clipPath>
</defs>
</svg>
