<svg width="18" height="18" viewBox="0 0 18 18" fill="none" xmlns="http://www.w3.org/2000/svg">
<path d="M4.90436 9.86501L11.6546 15.4903C11.8841 15.6801 12.1795 15.7712 12.476 15.7437C12.7725 15.7162 13.0461 15.5724 13.2368 15.3436C13.4275 15.1149 13.5197 14.8199 13.4934 14.5232C13.467 14.2266 13.3241 13.9525 13.0961 13.7609L7.38298 9.00031L13.0961 4.23969C13.325 4.04841 13.4687 3.77409 13.4954 3.47699C13.5222 3.17989 13.43 2.8843 13.239 2.65515C13.048 2.42601 12.7739 2.28205 12.4768 2.2549C12.1797 2.22775 11.884 2.31963 11.6546 2.51036L4.90436 8.13569C4.77779 8.24144 4.67598 8.37368 4.60611 8.52309C4.53625 8.6725 4.50004 8.83542 4.50004 9.00035C4.50004 9.16528 4.53625 9.32821 4.60611 9.47761C4.67598 9.62702 4.77779 9.75926 4.90436 9.86501Z" fill="#00C8D2"/>
</svg>
