<?xml version="1.0" encoding="UTF-8"?>
<svg fill="none" viewBox="0 0 23 23" xmlns="http://www.w3.org/2000/svg">
<g clip-path="url(#a)">
<path d="m11.5 6.8281c0.7818 0 1.5461 0.23185 2.1962 0.66623 0.6501 0.43437 1.1568 1.0518 1.456 1.7741 0.2992 0.72234 0.3775 1.5172 0.225 2.284-0.1526 0.7668-0.5291 1.4712-1.0819 2.024-0.5529 0.5529-1.2573 0.9294-2.0241 1.0819s-1.5617 0.0743-2.284-0.2249c-0.72234-0.2992-1.3397-0.8059-1.7741-1.456-0.43437-0.6501-0.66622-1.4144-0.66622-2.1963 0-1.0484 0.41649-2.0539 1.1578-2.7952 0.74136-0.74136 1.7469-1.1578 2.7953-1.1578zm9.2719-0.17968c-0.0637 0.11021-0.1554 0.20156-0.2659 0.2647s-0.2358 0.09581-0.363 0.09467c-0.1267 0.00102-0.2511-0.03319-0.3594-0.09883l-0.4133-0.24257c-0.2013 0.17264-0.4328 0.30665-0.6828 0.39531v0.48516c0 0.19062-0.0757 0.37344-0.2105 0.50823s-0.3176 0.21051-0.5083 0.21051c-0.1906 0-0.3734-0.07572-0.5082-0.21051s-0.2105-0.31761-0.2105-0.50823v-0.48516c-0.25-0.08866-0.4815-0.22267-0.6828-0.39531l-0.4133 0.24257c-0.1083 0.06564-0.2327 0.09985-0.3594 0.09883-0.1574-9.5e-4 -0.3101-0.05355-0.4348-0.14973-0.1246-0.09618-0.2142-0.23061-0.255-0.38265s-0.0306-0.31327 0.0291-0.45893c0.0597-0.14567 0.1656-0.2677 0.3014-0.34736l0.4132-0.24258c-0.0257-0.13016-0.0377-0.26265-0.0359-0.39531-0.0018-0.13266 0.0102-0.26515 0.0359-0.39531l-0.4132-0.24258c-0.0829-0.04577-0.1557-0.10765-0.2143-0.18199s-0.1017-0.15964-0.1268-0.25089-0.0317-0.18659-0.0194-0.28043 0.0432-0.18428 0.0909-0.26599c0.0975-0.16459 0.2558-0.2842 0.4407-0.33296 0.185-0.04876 0.3817-0.02274 0.5476 0.07242l0.4133 0.24257c0.2013-0.17264 0.4328-0.30665 0.6828-0.39531v-0.48516c0-0.19062 0.0757-0.37344 0.2105-0.50823s0.3176-0.21051 0.5082-0.21051c0.1907 0 0.3735 0.07572 0.5083 0.21051s0.2105 0.31761 0.2105 0.50823v0.48516c0.25 0.08866 0.4815 0.22267 0.6828 0.39531l0.4133-0.24257c0.1659-0.09516 0.3626-0.12118 0.5476-0.07242 0.1849 0.04876 0.3432 0.16837 0.4407 0.33296 0.0477 0.08171 0.0786 0.17215 0.0909 0.26599s0.0057 0.18918-0.0194 0.28043-0.0683 0.17655-0.1268 0.25089c-0.0586 0.07434-0.1314 0.13622-0.2143 0.18199l-0.4132 0.24258c0.0257 0.13016 0.0377 0.26265 0.0359 0.39531 0.0018 0.13266-0.0102 0.26515-0.0359 0.39531l0.4132 0.24258c0.0829 0.04577 0.1557 0.10765 0.2143 0.18199 0.0585 0.07434 0.1017 0.15964 0.1268 0.25089 0.0251 0.09124 0.0317 0.18659 0.0194 0.28043s-0.0432 0.18428-0.0909 0.26599zm-2.8032-0.89844c0.1422 0 0.2812-0.04215 0.3994-0.12113s0.2103-0.19123 0.2647-0.32257c0.0544-0.13133 0.0686-0.27585 0.0409-0.41527s-0.0962-0.26749-0.1967-0.36801-0.2286-0.16898-0.368-0.19671c-0.1395-0.02773-0.284-0.0135-0.4153 0.0409s-0.2436 0.14653-0.3226 0.26472c-0.079 0.1182-0.1211 0.25716-0.1211 0.39932 0 0.19062 0.0757 0.37344 0.2105 0.50823s0.3176 0.21052 0.5082 0.21052zm2.0125 4.007c-0.1877 0.02255-0.359 0.11819-0.4767 0.26617-0.1178 0.148-0.1724 0.3364-0.1522 0.5245 0.0359 0.3161 0.0539 0.6341 0.0539 0.9523 0.0027 1.9347-0.7074 3.8025-1.9945 5.2469-0.5818-0.8346-1.3315-1.5384-2.2012-2.0664-0.9984 0.9565-2.3278 1.4906-3.7105 1.4906-1.3828 0-2.7121-0.5341-3.7106-1.4906-0.86963 0.528-1.6194 1.2318-2.2012 2.0664-1.0109-1.1395-1.6711-2.5468-1.9012-4.0526s-0.0203-3.0461 0.60417-4.4355c0.62448-1.3894 1.637-2.5688 2.9159-3.3964 1.2789-0.82761 2.7696-1.2682 4.2929-1.2686 0.246-0.00148 0.492 0.01052 0.7367 0.03594 0.0944 0.00826 0.1895-0.00216 0.2799-0.03065 0.0903-0.02849 0.1742-0.0745 0.2468-0.1354 0.0725-0.0609 0.1324-0.1355 0.1762-0.21955 0.0437-0.08404 0.0705-0.17587 0.0788-0.27026 0.0082-0.09439-0.0022-0.18948-0.0307-0.27984-0.0285-0.09037-0.0745-0.17423-0.1354-0.24682-0.0609-0.07258-0.1355-0.13245-0.2195-0.1762-0.0841-0.04375-0.1759-0.07052-0.2703-0.07878-0.2785-0.02696-0.575-0.03594-0.8625-0.03594-1.8828 6.5e-4 -3.7214 0.57006-5.275 1.6336-1.5536 1.0635-2.7496 2.5716-3.4314 4.3266-0.68178 1.755-0.81749 3.675-0.38936 5.5084 0.42814 1.8334 1.4002 3.4947 2.7887 4.7662l0.1168 0.1078c1.7082 1.5108 3.9098 2.3447 6.1902 2.3447s4.4821-0.8339 6.1902-2.3447l0.1168-0.1078c0.9579-0.874 1.7227-1.9384 2.2456-3.125s0.7924-2.4693 0.7911-3.766c0.0018-0.3723-0.0193-0.7443-0.0628-1.1141-0.0112-0.0938-0.0407-0.1845-0.0869-0.2669-0.0463-0.0824-0.1083-0.1549-0.1826-0.21331-0.0742-0.05842-0.1593-0.10161-0.2503-0.12712-0.0909-0.02551-0.186-0.03283-0.2799-0.02154z" fill="#004168"/>
</g>
<defs>
<clipPath id="a">
<rect width="23" height="23" fill="#fff"/>
</clipPath>
</defs>
</svg>
